<?xml version="1.0" encoding="UTF-8"?>
<svg version="1.1" xmlns="http://www.w3.org/2000/svg" width="162" height="60">
<path d="M0 0 C53.46 0 106.92 0 162 0 C162 19.8 162 39.6 162 60 C108.54 60 55.08 60 0 60 C0 40.2 0 20.4 0 0 Z " fill="#E70219" transform="translate(0,0)"/>
<path d="M0 0 C21.12 0 42.24 0 64 0 C64 19.8 64 39.6 64 60 C44.40461837 60.12032643 44.40461837 60.12032643 36.06445312 60.14648438 C30.36913693 60.16443155 24.67396516 60.18568364 18.97875977 60.22631836 C14.38816048 60.25886758 9.79771602 60.27684365 5.20701027 60.28463173 C3.4538714 60.29018323 1.70074119 60.30102375 -0.05233192 60.31719017 C-2.50423246 60.33890575 -4.95548978 60.34196943 -7.4074707 60.34057617 C-8.13539322 60.351362 -8.86331573 60.36214783 -9.61329651 60.3732605 C-14.55508011 60.34279011 -14.55508011 60.34279011 -16.97453308 58.47871399 C-17.31293716 57.99073837 -17.65134125 57.50276276 -18 57 C-17.01 57 -16.02 57 -15 57 C-15 56.01 -15 55.02 -15 54 C-10.38 54 -5.76 54 -1 54 C-1.33 52.68 -1.66 51.36 -2 50 C-2.12205329 47.32459184 -2.04467313 44.68038762 -2 42 C-0.02 41.505 -0.02 41.505 2 41 C2 38.03 2 35.06 2 32 C0.68 31.67 -0.64 31.34 -2 31 C-2 30.01 -2 29.02 -2 28 C-1.01 27.67 -0.02 27.34 1 27 C1.33 24.36 1.66 21.72 2 19 C0.68 19 -0.64 19 -2 19 C-2 19.66 -2 20.32 -2 21 C-2.99 21 -3.98 21 -5 21 C-4.37354086 13.48249027 -4.37354086 13.48249027 -2.5 11.0625 C-0.1592516 8.20187681 -0.1592516 8.20187681 0 0 Z " fill="#E7031A" transform="translate(98,0)"/>
<path d="M0 0 C1.07878418 0.05236816 2.15756836 0.10473633 3.26904297 0.15869141 C5.01894531 0.23603516 5.01894531 0.23603516 6.80419922 0.31494141 C8.02751953 0.37939453 9.25083984 0.44384766 10.51123047 0.51025391 C11.74228516 0.56697266 12.97333984 0.62369141 14.24169922 0.68212891 C17.29043853 0.82393073 20.33839435 0.97537364 23.38623047 1.13525391 C23.38623047 1.79525391 23.38623047 2.45525391 23.38623047 3.13525391 C24.04623047 3.13525391 24.70623047 3.13525391 25.38623047 3.13525391 C25.22251953 3.80943359 25.05880859 4.48361328 24.89013672 5.17822266 C24.29869467 8.64893297 24.29084001 11.92847514 24.32373047 15.44775391 C24.34435547 17.65462891 24.36498047 19.86150391 24.38623047 22.13525391 C19.76623047 22.13525391 15.14623047 22.13525391 10.38623047 22.13525391 C8.98852463 25.88216837 8.98852463 25.88216837 10.38623047 28.13525391 C8.40623047 28.13525391 6.42623047 28.13525391 4.38623047 28.13525391 C4.38623047 26.15525391 4.38623047 24.17525391 4.38623047 22.13525391 C1.41623047 22.13525391 -1.55376953 22.13525391 -4.61376953 22.13525391 C-4.30126953 19.76025391 -4.30126953 19.76025391 -3.61376953 17.13525391 C-2.62376953 16.47525391 -1.63376953 15.81525391 -0.61376953 15.13525391 C0.08834941 13.48320935 0.7559446 11.81601622 1.38623047 10.13525391 C2.04623047 9.47525391 2.70623047 8.81525391 3.38623047 8.13525391 C3.06771277 6.02704594 3.06771277 6.02704594 2.38623047 4.13525391 C1.06623047 4.13525391 -0.25376953 4.13525391 -1.61376953 4.13525391 C-1.61376953 5.12525391 -1.61376953 6.11525391 -1.61376953 7.13525391 C-2.27376953 7.13525391 -2.93376953 7.13525391 -3.61376953 7.13525391 C-4.23876953 4.76025391 -4.23876953 4.76025391 -4.61376953 2.13525391 C-2.61376953 0.13525391 -2.61376953 0.13525391 0 0 Z " fill="#84434B" transform="translate(72.61376953125,31.86474609375)"/>
<path d="M0 0 C2.97 0 5.94 0 9 0 C9.43027559 6.99197834 8.71949025 10.13898506 5 16 C4.22514168 18.77138597 4.22514168 18.77138597 4 21 C4.99 21 5.98 21 7 21 C7 20.34 7 19.68 7 19 C8.32 19 9.64 19 11 19 C11 21.64 11 24.28 11 27 C9.68 27.33 8.36 27.66 7 28 C7.33 28.99 7.66 29.98 8 31 C8.99 31.33 9.98 31.66 11 32 C11 34.97 11 37.94 11 41 C9.02 41.495 9.02 41.495 7 42 C7.66 39.69 8.32 37.38 9 35 C8.34 35 7.68 35 7 35 C7 34.34 7 33.68 7 33 C4.03 33.495 4.03 33.495 1 34 C0.88452677 25.92970447 1.09958689 18.02332397 2 10 C0.68 10 -0.64 10 -2 10 C-2 8.35 -2 6.7 -2 5 C-1.34 5 -0.68 5 0 5 C0 3.35 0 1.7 0 0 Z " fill="#502429" transform="translate(89,0)"/>
<path d="M0 0 C1.65 0.33 3.3 0.66 5 1 C5.33 4.63 5.66 8.26 6 12 C7.77375 12.28875 9.5475 12.5775 11.375 12.875 C16.75 13.75 16.75 13.75 19 16 C19 16.99 19 17.98 19 19 C18.39671875 19.17015625 17.7934375 19.3403125 17.171875 19.515625 C12.00969286 20.99051669 12.00969286 20.99051669 7.875 24.25 C6 26 6 26 2.375 25.9375 C-1 25 -1 25 -3 22 C-3.4516129 15.67741935 -3.4516129 15.67741935 -1 12 C-1 9.43741531 -1.0190726 6.87471668 -1.0625 4.3125 C-1 1 -1 1 0 0 Z " fill="#757071" transform="translate(51,27)"/>
<path d="M0 0 C1.32 0 2.64 0 4 0 C4 0.66 4 1.32 4 2 C4.99 2.33 5.98 2.66 7 3 C6.88601335 4.62580966 6.75844341 6.25067157 6.625 7.875 C6.55539063 8.77992187 6.48578125 9.68484375 6.4140625 10.6171875 C6 13 6 13 4 15 C3.83312552 17.58354218 3.83312552 17.58354218 4 20 C4.66 20 5.32 20 6 20 C6 19.01 6 18.02 6 17 C7.32 17 8.64 17 10 17 C10.66 18.65 11.32 20.3 12 22 C11.01 22.66 10.02 23.32 9 24 C8.505 25.2375 8.505 25.2375 8 26.5 C7 29 7 29 4 31 C3.74984127 34.58357241 3.74984127 34.58357241 4 38 C2.68 38 1.36 38 0 38 C0 35.69 0 33.38 0 31 C-1.98 31.33 -3.96 31.66 -6 32 C-3.48169253 28.87729874 -2.2738451 28.05476902 1.75 27.25 C3.35875 27.12625 3.35875 27.12625 5 27 C4.20882096 25.00016466 4.20882096 25.00016466 3 23 C2.01 22.67 1.02 22.34 0 22 C0 19.03 0 16.06 0 13 C0.99 12.67 1.98 12.34 3 12 C3.33 11.01 3.66 10.02 4 9 C2.68 8.67 1.36 8.34 0 8 C0 5.36 0 2.72 0 0 Z " fill="#121111" transform="translate(65,19)"/>
<path d="M0 0 C0.99 0 1.98 0 3 0 C3 0.66 3 1.32 3 2 C3.99 1.67 4.98 1.34 6 1 C6.66 1.33 7.32 1.66 8 2 C8 3.32 8 4.64 8 6 C11.3 6 14.6 6 18 6 C18 9.63 18 13.26 18 17 C10.54131054 17.43874644 10.54131054 17.43874644 7 17 C4 13.65714286 4 13.65714286 4 11 C5.65 11 7.3 11 9 11 C9 10.01 9 9.02 9 8 C7.88625 7.9175 6.7725 7.835 5.625 7.75 C2 7 2 7 0.5625 5.125 C0 3 0 3 0 0 Z " fill="#8D8687" transform="translate(77,36)"/>
<path d="M0 0 C0 2.31 0 4.62 0 7 C1.32 7 2.64 7 4 7 C4 6.01 4 5.02 4 4 C6.64 4 9.28 4 12 4 C12 5.98 12 7.96 12 10 C8.56265937 10.08703823 5.12560163 10.14040272 1.6875 10.1875 C0.22280273 10.22520508 0.22280273 10.22520508 -1.27148438 10.26367188 C-2.67817383 10.27817383 -2.67817383 10.27817383 -4.11328125 10.29296875 C-4.97735596 10.3086792 -5.84143066 10.32438965 -6.73168945 10.34057617 C-9.45018536 9.93240678 -10.30363829 9.10407096 -12 7 C-11.4375 5.1875 -11.4375 5.1875 -10 3 C-6.49009536 1.21313946 -3.95875396 0 0 0 Z " fill="#E1041A" transform="translate(65,50)"/>
<path d="M0 0 C0.66 0 1.32 0 2 0 C2.185625 0.78375 2.37125 1.5675 2.5625 2.375 C3.83961627 5.39376342 3.83961627 5.39376342 7.625 6.3125 C8.73875 6.539375 9.8525 6.76625 11 7 C11 7.99 11 8.98 11 10 C9.68 10.33 8.36 10.66 7 11 C7.66 12.65 8.32 14.3 9 16 C4.05 16 -0.9 16 -6 16 C-5.67 14.35 -5.34 12.7 -5 11 C-4.34 10.67 -3.68 10.34 -3 10 C-2.31867549 8.33927151 -1.65257873 6.672233 -1 5 C-0.34 4.34 0.32 3.68 1 3 C0.67 2.01 0.34 1.02 0 0 Z " fill="#7C7878" transform="translate(75,37)"/>
<path d="M0 0 C2.97 0 5.94 0 9 0 C9.42601122 6.92268227 8.8054645 10.2341447 5 16 C4.67 16.99 4.34 17.98 4 19 C3.34 19 2.68 19 2 19 C2 16.03 2 13.06 2 10 C0.68 10 -0.64 10 -2 10 C-2 8.35 -2 6.7 -2 5 C-1.34 5 -0.68 5 0 5 C0 3.35 0 1.7 0 0 Z " fill="#6D363C" transform="translate(89,0)"/>
<path d="M0 0 C0.95310059 0.05236816 1.90620117 0.10473633 2.88818359 0.15869141 C3.91943359 0.21025391 4.95068359 0.26181641 6.01318359 0.31494141 C7.63353516 0.41162109 7.63353516 0.41162109 9.28662109 0.51025391 C10.37458984 0.56697266 11.46255859 0.62369141 12.58349609 0.68212891 C15.27684496 0.82388411 17.96930039 0.97532032 20.66162109 1.13525391 C20.47599609 1.73337891 20.29037109 2.33150391 20.09912109 2.94775391 C19.44068422 5.29934152 19.44068422 5.29934152 20.66162109 8.13525391 C18.35162109 8.13525391 16.04162109 8.13525391 13.66162109 8.13525391 C14.65162109 7.80525391 15.64162109 7.47525391 16.66162109 7.13525391 C16.66162109 5.81525391 16.66162109 4.49525391 16.66162109 3.13525391 C8.24662109 3.63025391 8.24662109 3.63025391 -0.33837891 4.13525391 C-0.66837891 5.12525391 -0.99837891 6.11525391 -1.33837891 7.13525391 C-1.99837891 7.13525391 -2.65837891 7.13525391 -3.33837891 7.13525391 C-3.96337891 4.76025391 -3.96337891 4.76025391 -4.33837891 2.13525391 C-2.33837891 0.13525391 -2.33837891 0.13525391 0 0 Z " fill="#3D5B6A" transform="translate(72.33837890625,31.86474609375)"/>
<path d="M0 0 C0.66 0 1.32 0 2 0 C2 4.62 2 9.24 2 14 C-0.475 13.01 -0.475 13.01 -3 12 C-3.99 12.495 -3.99 12.495 -5 13 C-5 9.37 -5 5.74 -5 2 C-3.35 2 -1.7 2 0 2 C0 1.34 0 0.68 0 0 Z " fill="#EB5564" transform="translate(108,0)"/>
<path d="M0 0 C0.99 0 1.98 0 3 0 C2.6875 2.375 2.6875 2.375 2 5 C1.01 5.66 0.02 6.32 -1 7 C-1.25015873 10.58357241 -1.25015873 10.58357241 -1 14 C-2.32 14 -3.64 14 -5 14 C-5 11.69 -5 9.38 -5 7 C-6.98 7.33 -8.96 7.66 -11 8 C-8.48169253 4.87729874 -7.2738451 4.05476902 -3.25 3.25 C-1.64125 3.12625 -1.64125 3.12625 0 3 C0 2.01 0 1.02 0 0 Z " fill="#3E393A" transform="translate(70,43)"/>
<path d="M0 0 C1.32 0 2.64 0 4 0 C4 0.66 4 1.32 4 2 C4.99 2.33 5.98 2.66 7 3 C6.9129995 4.62600941 6.8048219 6.25089678 6.6875 7.875 C6.62949219 8.77992187 6.57148437 9.68484375 6.51171875 10.6171875 C6 13 6 13 3 15 C2.01 14.34 1.02 13.68 0 13 C0.99 12.67 1.98 12.34 3 12 C3.33 11.01 3.66 10.02 4 9 C2.68 8.67 1.36 8.34 0 8 C0 5.36 0 2.72 0 0 Z " fill="#251618" transform="translate(65,19)"/>
<path d="M0 0 C1.65 0.33 3.3 0.66 5 1 C5 4.96 5 8.92 5 13 C3.68 12.34 2.36 11.68 1 11 C0.67 11.66 0.34 12.32 0 13 C-0.98248196 8.94726192 -1.16017882 5.16464926 -1 1 C-0.67 0.67 -0.34 0.34 0 0 Z " fill="#EC6976" transform="translate(104,27)"/>
<path d="M0 0 C1.65 0.33 3.3 0.66 5 1 C5 4.63 5 8.26 5 12 C3.02 12 1.04 12 -1 12 C-1 10.68 -1 9.36 -1 8 C-1.020625 6.783125 -1.04125 5.56625 -1.0625 4.3125 C-1 1 -1 1 0 0 Z " fill="#EC6A77" transform="translate(51,27)"/>
<path d="M0 0 C1.65 0.33 3.3 0.66 5 1 C5 3.31 5 5.62 5 8 C4.67 7.34 4.34 6.68 4 6 C3.34 6 2.68 6 2 6 C2.33 7.32 2.66 8.64 3 10 C3.66 9.67 4.32 9.34 5 9 C5 10.32 5 11.64 5 13 C3 13 1 13 -1 13 C-1 10.36 -1 7.72 -1 5 C-0.34 5 0.32 5 1 5 C0.34 4.67 -0.32 4.34 -1 4 C-0.67 2.68 -0.34 1.36 0 0 Z " fill="#EC6976" transform="translate(131,27)"/>
<path d="M0 0 C0.33 0.99 0.66 1.98 1 3 C3.97 3 6.94 3 10 3 C9.566875 4.051875 9.566875 4.051875 9.125 5.125 C7.97866412 8.05452503 6.97374346 11.00921653 6 14 C5.34 14 4.68 14 4 14 C4 11.03 4 8.06 4 5 C2.68 5 1.36 5 0 5 C0 3.35 0 1.7 0 0 Z " fill="#44272B" transform="translate(87,5)"/>
<path d="M0 0 C0.66 0 1.32 0 2 0 C2.66 4.62 3.32 9.24 4 14 C2.35 14.33 0.7 14.66 -1 15 C-1.02693575 12.87506859 -1.04636628 10.75004088 -1.0625 8.625 C-1.07410156 7.44164062 -1.08570312 6.25828125 -1.09765625 5.0390625 C-1 2 -1 2 0 0 Z " fill="#56060E" transform="translate(91,19)"/>
<path d="M0 0 C0 3.96 0 7.92 0 12 C-0.99 12 -1.98 12 -3 12 C-3 11.34 -3 10.68 -3 10 C-3.66 10 -4.32 10 -5 10 C-5.33 10.66 -5.66 11.32 -6 12 C-6 11.01 -6 10.02 -6 9 C-4.68 9 -3.36 9 -2 9 C-2 8.34 -2 7.68 -2 7 C-3.32 7 -4.64 7 -6 7 C-6 6.34 -6 5.68 -6 5 C-4.68 5 -3.36 5 -2 5 C-2 4.34 -2 3.68 -2 3 C-3.32 3 -4.64 3 -6 3 C-6 2.34 -6 1.68 -6 1 C-3.92446352 0.4465236 -2.15634036 0 0 0 Z " fill="#EC6A77" transform="translate(83,1)"/>
<path d="M0 0 C6.0546875 -0.1953125 6.0546875 -0.1953125 8 0 C10 2 10 2 10 5 C7.03 5.66 4.06 6.32 1 7 C0.67 4.69 0.34 2.38 0 0 Z " fill="#626162" transform="translate(60,41)"/>
<path d="M0 0 C0 2.64 0 5.28 0 8 C-1.98 8 -3.96 8 -6 8 C-6 5.69 -6 3.38 -6 1 C-3.92446352 0.4465236 -2.15634036 0 0 0 Z " fill="#EB4657" transform="translate(136,1)"/>
<path d="M0 0 C2.31 0.33 4.62 0.66 7 1 C7 3.31 7 5.62 7 8 C6.34 8 5.68 8 5 8 C5 7.34 5 6.68 5 6 C3.68 6.33 2.36 6.66 1 7 C0.67 4.69 0.34 2.38 0 0 Z " fill="#EA4253" transform="translate(23,32)"/>
<path d="M0 0 C1.67542976 0.28604898 3.34385343 0.61781233 5 1 C5 3.31 5 5.62 5 8 C3.02 8 1.04 8 -1 8 C-1.04241723 5.66705225 -1.04092937 3.33297433 -1 1 C-0.67 0.67 -0.34 0.34 0 0 Z " fill="#EB4E5E" transform="translate(51,5)"/>
<path d="M0 0 C2.5 0.125 2.5 0.125 3.5 1.125 C3.54063832 2.79117115 3.542721 4.45888095 3.5 6.125 C1.19 6.125 -1.12 6.125 -3.5 6.125 C-3.542721 4.45888095 -3.54063832 2.79117115 -3.5 1.125 C-2.5 0.125 -2.5 0.125 0 0 Z " fill="#EB5B6A" transform="translate(26.5,53.875)"/>
<path d="M0 0 C1.98 0 3.96 0 6 0 C6 1.98 6 3.96 6 6 C4.02 6 2.04 6 0 6 C0 4.02 0 2.04 0 0 Z " fill="#EC6673" transform="translate(130,54)"/>
<path d="M0 0 C0.66 0.33 1.32 0.66 2 1 C4.71262116 1.2322646 7.40773126 1.41936235 10.125 1.5625 C11.25615234 1.62727539 11.25615234 1.62727539 12.41015625 1.69335938 C14.27321888 1.7994832 16.13658524 1.90025001 18 2 C18 2.33 18 2.66 18 3 C10.08 3.495 10.08 3.495 2 4 C1.67 4.99 1.34 5.98 1 7 C0.34 7 -0.32 7 -1 7 C-1.625 4.625 -1.625 4.625 -2 2 C-1.34 1.34 -0.68 0.68 0 0 Z " fill="#6A6C6E" transform="translate(70,32)"/>
<path d="M0 0 C0.33 0 0.66 0 1 0 C1 2.64 1 5.28 1 8 C0.21625 7.649375 -0.5675 7.29875 -1.375 6.9375 C-2.24125 6.628125 -3.1075 6.31875 -4 6 C-4.99 6.495 -4.99 6.495 -6 7 C-5.67 5.02 -5.34 3.04 -5 1 C-1.125 1.875 -1.125 1.875 0 3 C0 2.01 0 1.02 0 0 Z " fill="#EA4354" transform="translate(109,6)"/>
<path d="M0 0 C0 2.31 0 4.62 0 7 C-1.65 6.67 -3.3 6.34 -5 6 C-5.33 6.66 -5.66 7.32 -6 8 C-6 5.69 -6 3.38 -6 1 C-1.125 0 -1.125 0 0 0 Z " fill="#EB5362" transform="translate(162,1)"/>
<path d="M0 0 C0.99 0.33 1.98 0.66 3 1 C3 4.96 3 8.92 3 13 C2.01 12.67 1.02 12.34 0 12 C0 8.04 0 4.08 0 0 Z " fill="#EA4152" transform="translate(0,27)"/>
<path d="M0 0 C1.32 0 2.64 0 4 0 C4 2.64 4 5.28 4 8 C2.35 8.33 0.7 8.66 -1 9 C-1 8.01 -1 7.02 -1 6 C-0.34 6 0.32 6 1 6 C0.67 4.02 0.34 2.04 0 0 Z " fill="#0D0203" transform="translate(96,19)"/>
<path d="M0 0 C1.98 0.66 3.96 1.32 6 2 C5.01 2.33 4.02 2.66 3 3 C2.67 3.66 2.34 4.32 2 5 C3.65 5 5.3 5 7 5 C7 5.99 7 6.98 7 8 C4.69 8 2.38 8 0 8 C0 5.36 0 2.72 0 0 Z " fill="#EB5463" transform="translate(23,5)"/>
<path d="M0 0 C1.32 0 2.64 0 4 0 C4 2.97 4 5.94 4 9 C2.68 9 1.36 9 0 9 C0 6.03 0 3.06 0 0 Z " fill="#120204" transform="translate(96,48)"/>
<path d="M0 0 C0 3.96 0 7.92 0 12 C-0.99 11.67 -1.98 11.34 -3 11 C-3 7.7 -3 4.4 -3 1 C-1 0 -1 0 0 0 Z " fill="#EB5665" transform="translate(3,1)"/>
<path d="M0 0 C1.65 0 3.3 0 5 0 C6 4.875 6 4.875 6 6 C4.02 6 2.04 6 0 6 C0 4.02 0 2.04 0 0 Z " fill="#EC6A77" transform="translate(77,54)"/>
<path d="M0 0 C0.99 0 1.98 0 3 0 C3 2.97 3 5.94 3 9 C1.68 9 0.36 9 -1 9 C-1.09765625 2.84765625 -1.09765625 2.84765625 -1 1 C-0.67 0.67 -0.34 0.34 0 0 Z " fill="#0E0506" transform="translate(66,48)"/>
<path d="M0 0 C0.66 0 1.32 0 2 0 C2.33 1.32 2.66 2.64 3 4 C2.34 4 1.68 4 1 4 C1 4.66 1 5.32 1 6 C1.598125 5.773125 2.19625 5.54625 2.8125 5.3125 C3.8953125 5.1578125 3.8953125 5.1578125 5 5 C5.99 5.99 6.98 6.98 8 8 C5.03 8 2.06 8 -1 8 C-0.67 5.36 -0.34 2.72 0 0 Z " fill="#675B5D" transform="translate(89,0)"/>
<path d="M0 0 C1.65 0 3.3 0 5 0 C5 1.98 5 3.96 5 6 C3.35 6 1.7 6 0 6 C0 4.02 0 2.04 0 0 Z " fill="#EC6572" transform="translate(157,54)"/>
<path d="M0 0 C2.475 0.495 2.475 0.495 5 1 C5.33 2.98 5.66 4.96 6 7 C4.02 7 2.04 7 0 7 C0 4.66666667 0 2.33333333 0 0 Z " fill="#EA5F6D" transform="translate(50,32)"/>
<path d="M0 0 C1.98 0 3.96 0 6 0 C5.67 0.99 5.34 1.98 5 3 C5.33 3.99 5.66 4.98 6 6 C4.02 6 2.04 6 0 6 C0 4.02 0 2.04 0 0 Z " fill="#ED727F" transform="translate(50,54)"/>
<path d="M0 0 C5.28 0 10.56 0 16 0 C16 0.66 16 1.32 16 2 C13.36 2.33 10.72 2.66 8 3 C8 2.34 8 1.68 8 1 C7.236875 1.20625 6.47375 1.4125 5.6875 1.625 C3 2 3 2 0 0 Z " fill="#BB2231" transform="translate(72,35)"/>
<path d="M0 0 C2.475 0.495 2.475 0.495 5 1 C5 2.65 5 4.3 5 6 C4.01 6 3.02 6 2 6 C1.67 6.66 1.34 7.32 1 8 C0.40267181 5.23735711 0 2.83967231 0 0 Z " fill="#EB4858" transform="translate(103,32)"/>
<path d="M0 0 C0.99 0 1.98 0 3 0 C3.625 1.8125 3.625 1.8125 4 4 C3.01 5.485 3.01 5.485 2 7 C1.34 7 0.68 7 0 7 C0 6.34 0 5.68 0 5 C-0.66 4.67 -1.32 4.34 -2 4 C-1.34 2.68 -0.68 1.36 0 0 Z " fill="#777C7F" transform="translate(93,33)"/>
<path d="M0 0 C0.33 0.99 0.66 1.98 1 3 C3.97 3 6.94 3 10 3 C9.67 3.99 9.34 4.98 9 6 C7.68 6 6.36 6 5 6 C5 5.34 5 4.68 5 4 C3.35 4.33 1.7 4.66 0 5 C0 3.35 0 1.7 0 0 Z " fill="#453E3F" transform="translate(87,5)"/>
<path d="M0 0 C1.98 0 3.96 0 6 0 C5.33333333 2 4.66666667 4 4 6 C2.68 5.67 1.36 5.34 0 5 C0 3.35 0 1.7 0 0 Z " fill="#EC6F7B" transform="translate(103,54)"/>
<path d="M0 0 C2.64 0 5.28 0 8 0 C8 0.99 8 1.98 8 3 C5.36 3 2.72 3 0 3 C0 2.01 0 1.02 0 0 Z " fill="#BE303E" transform="translate(78,44)"/>
<path d="M0 0 C0.99 0 1.98 0 3 0 C3.33 2.97 3.66 5.94 4 9 C2.68 8.67 1.36 8.34 0 8 C0 5.36 0 2.72 0 0 Z " fill="#060505" transform="translate(65,33)"/>
<path d="M0 0 C0.99 0 1.98 0 3 0 C3 2.64 3 5.28 3 8 C1.68 8.33 0.36 8.66 -1 9 C-0.67 6.03 -0.34 3.06 0 0 Z " fill="#090102" transform="translate(97,33)"/>
<path d="M0 0 C1.65 0 3.3 0 5 0 C5 1.32 5 2.64 5 4 C3.35 4 1.7 4 0 4 C0 2.68 0 1.36 0 0 Z " fill="#EC606E" transform="translate(77,27)"/>
<path d="M0 0 C1.65 0 3.3 0 5 0 C5 1.32 5 2.64 5 4 C3.35 4 1.7 4 0 4 C0 2.68 0 1.36 0 0 Z " fill="#EC626F" transform="translate(157,27)"/>
<path d="M0 0 C1.65 0 3.3 0 5 0 C5 1.32 5 2.64 5 4 C3.35 4 1.7 4 0 4 C0 2.68 0 1.36 0 0 Z " fill="#EC5E6C" transform="translate(24,27)"/>
<path d="M0 0 C1.65 0.33 3.3 0.66 5 1 C4.67 1.99 4.34 2.98 4 4 C2.35 4 0.7 4 -1 4 C-0.67 2.68 -0.34 1.36 0 0 Z " fill="#EC707C" transform="translate(51,5)"/>
<path d="M0 0 C0 1.65 0 3.3 0 5 C-0.66 5 -1.32 5 -2 5 C-2 4.34 -2 3.68 -2 3 C-3.32 3 -4.64 3 -6 3 C-6 2.34 -6 1.68 -6 1 C-3.92446352 0.4465236 -2.15634036 0 0 0 Z " fill="#EB5B6A" transform="translate(83,1)"/>
<path d="M0 0 C0.99 0.33 1.98 0.66 3 1 C3 2.65 3 4.3 3 6 C2.01 6 1.02 6 0 6 C0 4.02 0 2.04 0 0 Z " fill="#EC616F" transform="translate(0,54)"/>
<path d="M0 0 C0.33 0 0.66 0 1 0 C1.1875 3.375 1.1875 3.375 1 7 C0.01 7.66 -0.98 8.32 -2 9 C-2.99 8.34 -3.98 7.68 -5 7 C-4.01 6.67 -3.02 6.34 -2 6 C-0.77479736 2.99152582 -0.77479736 2.99152582 0 0 Z " fill="#510B12" transform="translate(70,25)"/>
<path d="M0 0 C0.99 0.33 1.98 0.66 3 1 C3 3.31 3 5.62 3 8 C2.67 7.34 2.34 6.68 2 6 C1.34 6 0.68 6 0 6 C0 4.02 0 2.04 0 0 Z " fill="#EC6B77" transform="translate(0,27)"/>
<path d="M0 0 C1.98 0 3.96 0 6 0 C6 0.99 6 1.98 6 3 C4.02 3.33 2.04 3.66 0 4 C0 2.68 0 1.36 0 0 Z " fill="#EC6471" transform="translate(130,10)"/>
<path d="M0 0 C2.0625 0.4375 2.0625 0.4375 4 1 C4 1.99 4 2.98 4 4 C2.02 4 0.04 4 -2 4 C-1 1 -1 1 0 0 Z " fill="#EC6F7C" transform="translate(132,5)"/>
</svg>
